<svg xmlns="http://www.w3.org/2000/svg" viewBox="0 0 1096 778" role="img" aria-labelledby="title desc">
  <title id="title">Science lab student with hidden AI edits</title>
  <desc id="desc">A school lab photo style illustration with six visible manipulation clues.</desc>
  <defs>
    <linearGradient id="wall" x1="0" y1="0" x2="1" y2="1">
      <stop offset="0" stop-color="#d7edf0"/>
      <stop offset="0.55" stop-color="#9fd0d3"/>
      <stop offset="1" stop-color="#5e8e98"/>
    </linearGradient>
    <linearGradient id="bench" x1="0" y1="0" x2="1" y2="0">
      <stop offset="0" stop-color="#26313a"/>
      <stop offset="1" stop-color="#596975"/>
    </linearGradient>
    <filter id="softBlur">
      <feGaussianBlur stdDeviation="3.5"/>
    </filter>
    <filter id="paperNoise">
      <feTurbulence type="fractalNoise" baseFrequency="0.08" numOctaves="2" seed="6"/>
      <feColorMatrix type="saturate" values="0.25"/>
      <feBlend mode="multiply" in2="SourceGraphic"/>
    </filter>
  </defs>

  <rect width="1096" height="778" fill="url(#wall)"/>
  <rect y="535" width="1096" height="243" fill="#6d7d83"/>
  <polygon points="0,575 1096,500 1096,778 0,778" fill="url(#bench)" opacity="0.92"/>

  <g opacity="0.55">
    <rect x="58" y="64" width="250" height="220" rx="6" fill="#f2fbff" stroke="#375762" stroke-width="5"/>
    <line x1="183" y1="64" x2="183" y2="284" stroke="#375762" stroke-width="4"/>
    <line x1="58" y1="174" x2="308" y2="174" stroke="#375762" stroke-width="4"/>
    <path d="M78 244 C120 206 157 225 192 188 C228 150 263 178 288 118" fill="none" stroke="#3a9db7" stroke-width="7" opacity="0.7"/>
  </g>

  <g transform="translate(798 108)">
    <rect width="185" height="145" rx="9" fill="#fff5d6" stroke="#825f18" stroke-width="5"/>
    <text x="23" y="40" font-family="Arial, sans-serif" font-size="23" font-weight="700" fill="#26313a">LAB SAFETV</text>
    <text x="30" y="76" font-family="Arial, sans-serif" font-size="22" fill="#26313a" transform="rotate(-8 78 72)">GOG8LES</text>
    <path d="M38 106 L82 88 L122 116 L152 78" fill="none" stroke="#c75146" stroke-width="7"/>
    <circle cx="137" cy="44" r="18" fill="none" stroke="#3a6a77" stroke-width="5" stroke-dasharray="5 8"/>
  </g>

  <g transform="translate(379 122)">
    <path d="M37 246 C-12 300 -32 426 19 506 L286 506 C340 419 321 298 268 247 C217 199 91 198 37 246Z" fill="#f6f2e8"/>
    <path d="M99 424 L235 424 L255 580 L81 580Z" fill="#23314b"/>
    <path d="M126 310 L205 310 L220 424 C198 446 147 446 125 424Z" fill="#d59a7c"/>

    <ellipse cx="166" cy="173" rx="112" ry="134" fill="#d99a7b"/>
    <path d="M68 58 C118 -3 247 9 287 83 C286 41 251 17 211 6 C157 -9 91 7 51 54 C11 101 14 179 33 217 C43 150 51 101 68 58Z" fill="#17232c"/>
    <path d="M80 48 C118 2 198 5 242 24 C195 11 123 31 91 76 C74 101 67 131 65 169 C48 126 50 83 80 48Z" fill="#263642" filter="url(#softBlur)" opacity="0.9"/>
    <path d="M260 90 C285 130 291 181 272 226 C276 168 267 126 236 88Z" fill="#17232c"/>

    <ellipse cx="126" cy="175" rx="12" ry="9" fill="#1b2230"/>
    <ellipse cx="203" cy="178" rx="15" ry="7" fill="#1b2230"/>
    <path d="M103 164 C124 150 150 153 163 171" fill="none" stroke="#1f2733" stroke-width="6"/>
    <path d="M186 161 C211 145 239 160 244 184" fill="none" stroke="#1f2733" stroke-width="6"/>
    <path d="M97 168 L246 183" stroke="#1f2733" stroke-width="5"/>
    <circle cx="128" cy="176" r="24" fill="none" stroke="#13212b" stroke-width="6"/>
    <ellipse cx="208" cy="180" rx="34" ry="21" fill="none" stroke="#13212b" stroke-width="6"/>
    <path d="M160 177 C171 183 181 183 192 178" fill="none" stroke="#13212b" stroke-width="6"/>

    <path d="M147 242 C168 259 195 255 214 241" fill="#f4f3df" stroke="#6e2d34" stroke-width="7"/>
    <rect x="151" y="239" width="58" height="22" rx="3" fill="#f7efd4"/>
    <line x1="170" y1="240" x2="168" y2="260" stroke="#cdbf9e" stroke-width="4"/>

    <rect x="214" y="396" width="77" height="96" rx="8" fill="#f5fbff" stroke="#87a7b3" stroke-width="5" transform="rotate(7 252 444)"/>
    <text x="232" y="431" font-family="Arial, sans-serif" font-size="18" font-weight="700" fill="#13212b" transform="rotate(12 232 431)">SCl</text>
    <path d="M235 454 L275 465 L230 476" fill="none" stroke="#4a91a8" stroke-width="6" transform="rotate(7 252 465)"/>

    <g transform="translate(-138 416)">
      <path d="M65 38 C92 14 132 22 153 57 C168 82 146 118 109 118 C72 118 39 88 65 38Z" fill="#d99979"/>
      <path d="M86 39 C80 3 113 -5 113 42" fill="#d99979" stroke="#9b604d" stroke-width="5"/>
      <path d="M108 34 C103 -10 139 -6 134 43" fill="#d99979" stroke="#9b604d" stroke-width="5"/>
      <path d="M130 42 C132 1 164 13 151 55" fill="#d99979" stroke="#9b604d" stroke-width="5"/>
      <path d="M149 58 C166 24 190 47 165 78" fill="#d99979" stroke="#9b604d" stroke-width="5"/>
      <path d="M72 72 C43 42 24 65 53 92" fill="#d99979" stroke="#9b604d" stroke-width="5"/>
      <path d="M99 107 C126 100 147 82 153 58" fill="none" stroke="#8c5848" stroke-width="5" opacity="0.55"/>
    </g>
  </g>

  <g transform="translate(105 564)">
    <rect width="190" height="94" rx="9" fill="#d9f3f5" stroke="#305663" stroke-width="5"/>
    <ellipse cx="65" cy="47" rx="31" ry="16" fill="#88c7d2"/>
    <rect x="112" y="26" width="42" height="42" rx="5" fill="#f4d76a"/>
    <path d="M124 33 L148 61 M148 33 L124 61" stroke="#896a19" stroke-width="5"/>
  </g>
  <g transform="translate(835 573)">
    <rect width="124" height="82" rx="8" fill="#b7ecef" stroke="#2d5b66" stroke-width="5"/>
    <circle cx="41" cy="42" r="23" fill="#7cc5d1"/>
    <rect x="75" y="22" width="25" height="44" fill="#f6f2e8"/>
  </g>

  <rect x="0" y="0" width="1096" height="778" fill="none" stroke="#ffffff" stroke-opacity="0.2" stroke-width="10"/>
  <rect x="0" y="0" width="1096" height="778" fill="transparent" filter="url(#paperNoise)" opacity="0.12"/>
</svg>
