<svg xmlns="http://www.w3.org/2000/svg" viewBox="0 0 1096 778" role="img" aria-labelledby="title desc">
  <title id="title">Sports hall student with hidden AI edits</title>
  <desc id="desc">A school sports hall photo style illustration with six visible manipulation clues.</desc>
  <defs>
    <linearGradient id="hall" x1="0" y1="0" x2="0" y2="1">
      <stop offset="0" stop-color="#eef3f7"/>
      <stop offset="0.52" stop-color="#bcc8cf"/>
      <stop offset="1" stop-color="#6f7d84"/>
    </linearGradient>
    <linearGradient id="floor" x1="0" y1="0" x2="1" y2="0">
      <stop offset="0" stop-color="#a55f33"/>
      <stop offset="0.52" stop-color="#d58a46"/>
      <stop offset="1" stop-color="#8c4c2d"/>
    </linearGradient>
    <filter id="smear">
      <feGaussianBlur stdDeviation="3"/>
    </filter>
  </defs>

  <rect width="1096" height="778" fill="url(#hall)"/>
  <rect y="524" width="1096" height="254" fill="url(#floor)"/>
  <path d="M0 612 H1096 M0 692 H1096 M154 524 L80 778 M396 524 L363 778 M702 524 L735 778 M950 524 L1034 778" stroke="#f7d18a" stroke-width="6" opacity="0.45"/>
  <rect x="0" y="446" width="1096" height="26" fill="#314152" opacity="0.28"/>

  <g transform="translate(822 92)">
    <rect width="160" height="112" rx="8" fill="#1d2b39" stroke="#75e3ee" stroke-width="5"/>
    <text x="22" y="42" font-family="Arial, sans-serif" font-size="26" font-weight="700" fill="#75e3ee" transform="rotate(-3 66 40)">8B:1S</text>
    <text x="28" y="80" font-family="Arial, sans-serif" font-size="24" font-weight="700" fill="#f5cf61">4O - 0?</text>
    <path d="M24 94 L138 82" stroke="#ef4b69" stroke-width="5" stroke-dasharray="12 9"/>
  </g>

  <g opacity="0.42">
    <rect x="88" y="116" width="226" height="168" rx="8" fill="#fff" stroke="#617382" stroke-width="5"/>
    <text x="119" y="165" font-family="Arial, sans-serif" font-size="26" font-weight="700" fill="#394b59">TEAM WALL</text>
    <path d="M116 224 C154 188 189 249 230 203 C250 183 282 186 296 220" fill="none" stroke="#38a7ba" stroke-width="8"/>
  </g>

  <g transform="translate(445 111)">
    <path d="M115 315 C70 350 41 427 38 518 L281 518 C280 425 245 350 205 315Z" fill="#0f6a74"/>
    <path d="M105 326 L215 326 L236 500 L82 500Z" fill="#e7f3f5"/>
    <path d="M105 326 L215 326 L216 376 L106 376Z" fill="#0f6a74"/>
    <path d="M128 281 L194 281 L211 331 C191 352 132 352 113 331Z" fill="#c98a69"/>

    <ellipse cx="160" cy="162" rx="91" ry="113" fill="#cc8e6c"/>
    <path d="M82 94 C108 31 196 18 242 80 C267 114 267 175 246 222 C241 153 227 112 196 85 C160 55 118 66 82 94Z" fill="#1f2426"/>
    <path d="M84 95 C56 143 63 206 84 243 C80 199 77 144 108 106Z" fill="#1f2426"/>
    <path d="M87 168 C65 150 44 166 50 197 C56 226 76 230 90 209Z" fill="#c98a69"/>
    <path d="M78 173 C64 159 55 179 62 198 C67 212 79 213 87 199Z" fill="#c98a69" filter="url(#smear)"/>

    <ellipse cx="132" cy="161" rx="12" ry="8" fill="#151c23"/>
    <ellipse cx="189" cy="158" rx="19" ry="7" fill="#151c23"/>
    <path d="M113 146 C127 135 151 135 165 148" fill="none" stroke="#151c23" stroke-width="6"/>
    <path d="M175 145 C199 130 222 149 226 170" fill="none" stroke="#151c23" stroke-width="6"/>
    <path d="M134 215 C155 229 179 226 198 211" fill="none" stroke="#72333d" stroke-width="7"/>

    <g transform="translate(98 326)">
      <path d="M15 42 C38 1 96 0 122 42 L111 130 L25 130Z" fill="#e7f3f5"/>
      <text x="40" y="92" font-family="Arial, sans-serif" font-size="66" font-weight="900" fill="#0f6a74" transform="rotate(9 67 78)">3S</text>
      <path d="M58 76 C77 61 95 75 106 58" fill="none" stroke="#e74b5f" stroke-width="6" opacity="0.75"/>
    </g>

    <g transform="translate(-95 310)">
      <path d="M51 48 C72 19 114 22 136 55 C153 81 134 117 97 116 C57 115 31 77 51 48Z" fill="#c98a69"/>
      <path d="M69 50 C54 21 79 6 88 47" fill="#c98a69" stroke="#915c4a" stroke-width="5"/>
      <path d="M91 46 C84 2 120 4 116 52" fill="#c98a69" stroke="#915c4a" stroke-width="5"/>
      <path d="M114 54 C123 15 151 31 132 70" fill="#c98a69" stroke="#915c4a" stroke-width="5"/>
      <path d="M61 76 C32 55 20 82 53 100" fill="#c98a69" stroke="#915c4a" stroke-width="5"/>
    </g>

    <path d="M77 510 C92 538 132 538 147 510 L143 592 L84 592Z" fill="#27313a"/>
    <path d="M180 510 C196 538 236 537 249 508 L238 592 L182 592Z" fill="#27313a"/>
    <path d="M69 591 C111 578 146 589 158 615 C119 625 76 620 48 610Z" fill="#1c2228"/>
    <path d="M181 591 C226 578 263 590 276 616 C235 626 191 620 164 610Z" fill="#1c2228"/>
    <path d="M75 603 C105 602 128 608 151 616" stroke="#e7f3f5" stroke-width="7" filter="url(#smear)"/>
    <path d="M188 603 C221 602 247 611 270 617" stroke="#e7f3f5" stroke-width="7" filter="url(#smear)"/>
  </g>

  <g transform="translate(173 533)">
    <circle cx="63" cy="63" r="58" fill="#f0a12d" stroke="#8f4b1d" stroke-width="6"/>
    <path d="M14 64 C44 53 82 54 112 67 M63 7 C51 38 52 83 67 119 M24 24 C53 52 78 78 101 103" fill="none" stroke="#7f431a" stroke-width="6" opacity="0.7"/>
  </g>
  <g transform="translate(887 548)">
    <rect width="74" height="110" rx="12" fill="#446b76" opacity="0.75"/>
    <rect x="17" y="22" width="40" height="67" rx="5" fill="#dcebed"/>
  </g>

  <rect x="0" y="0" width="1096" height="778" fill="none" stroke="#ffffff" stroke-opacity="0.2" stroke-width="10"/>
</svg>
